<svg xmlns="http://www.w3.org/2000/svg" viewBox="0 0 100 100" width="100" height="100">
  <defs>
    <linearGradient id="bg" x1="0%" y1="0%" x2="100%" y2="100%">
      <stop offset="0%" stop-color="#EAF4FF"/>
      <stop offset="100%" stop-color="#C7E0FF"/>
    </linearGradient>
    <linearGradient id="coverLeft" x1="0%" y1="0%" x2="100%" y2="100%">
      <stop offset="0%" stop-color="#4F9BFF"/>
      <stop offset="100%" stop-color="#2563EB"/>
    </linearGradient>
    <linearGradient id="coverRight" x1="0%" y1="0%" x2="100%" y2="100%">
      <stop offset="0%" stop-color="#60A5FA"/>
      <stop offset="100%" stop-color="#1D4ED8"/>
    </linearGradient>
  </defs>

  <rect x="6" y="6" width="88" height="88" rx="20" fill="url(#bg)"/>

  <path
    d="M50 24
       C42 18, 27 18, 18 24
       L18 69
       C28 63, 40 63, 50 69
       Z"
    fill="url(#coverLeft)"
    stroke="#1E40AF"
    stroke-width="2.5"
    stroke-linejoin="round"
  />

  <path
    d="M50 24
       C58 18, 73 18, 82 24
       L82 69
       C72 63, 60 63, 50 69
       Z"
    fill="url(#coverRight)"
    stroke="#1E3A8A"
    stroke-width="2.5"
    stroke-linejoin="round"
  />

  <path
    d="M50 24 L50 69"
    stroke="#DBEAFE"
    stroke-width="3"
    stroke-linecap="round"
  />

  <path
    d="M24 32
       C32 28, 40 28, 47 31"
    fill="none"
    stroke="#EFF6FF"
    stroke-width="2.2"
    stroke-linecap="round"
  />
  <path
    d="M24 40
       C32 36, 40 36, 47 39"
    fill="none"
    stroke="#EFF6FF"
    stroke-width="2.2"
    stroke-linecap="round"
  />
  <path
    d="M24 48
       C32 44, 40 44, 47 47"
    fill="none"
    stroke="#EFF6FF"
    stroke-width="2.2"
    stroke-linecap="round"
  />

  <path
    d="M53 31
       C60 28, 68 28, 76 32"
    fill="none"
    stroke="#EFF6FF"
    stroke-width="2.2"
    stroke-linecap="round"
  />
  <path
    d="M53 39
       C60 36, 68 36, 76 40"
    fill="none"
    stroke="#EFF6FF"
    stroke-width="2.2"
    stroke-linecap="round"
  />
  <path
    d="M53 47
       C60 44, 68 44, 76 48"
    fill="none"
    stroke="#EFF6FF"
    stroke-width="2.2"
    stroke-linecap="round"
  />

  <path
    d="M18 69
       C28 63, 40 63, 50 69
       C60 63, 72 63, 82 69"
    fill="none"
    stroke="#93C5FD"
    stroke-width="2.5"
    stroke-linecap="round"
    stroke-linejoin="round"
  />
</svg>
