<svg xmlns="http://www.w3.org/2000/svg" width="128" height="128" viewBox="0 0 128 128">
  <rect width="128" height="128" rx="24" fill="#24292F"/>
  <path fill="#fff" d="M64 24C41.9 24 24 41.9 24 64c0 17.7 11.5 32.7 27.4 38 2 .4 2.7-.9 2.7-1.9v-6.7c-11.1 2.4-13.5-5.4-13.5-5.4-1.8-4.6-4.5-5.9-4.5-5.9-3.6-2.5.3-2.4.3-2.4 4 .3 6.2 4.2 6.2 4.2 3.6 6.2 9.4 4.4 11.7 3.4.4-2.6 1.4-4.4 2.6-5.4-8.9-1-18.2-4.5-18.2-19.8 0-4.4 1.6-8 4.2-10.8-.4-1-1.8-5.1.4-10.7 0 0 3.4-1.1 11 4.1 3.2-.9 6.6-1.3 10-1.3s6.8.5 10 1.3c7.6-5.2 11-4.1 11-4.1 2.2 5.6.8 9.7.4 10.7 2.6 2.8 4.2 6.4 4.2 10.8 0 15.4-9.3 18.8-18.2 19.8 1.4 1.2 2.7 3.7 2.7 7.4v11c0 1.1.7 2.3 2.8 1.9C92.5 96.7 104 81.7 104 64c0-22.1-17.9-40-40-40z"/>
  <circle cx="96" cy="92" r="20" fill="#22C55E" stroke="#24292F" stroke-width="4"/>
  <path d="M96 84v16M88 92h16" stroke="#fff" stroke-width="4" stroke-linecap="round"/>
</svg>
